# xmcd
#
# Track frame offsets: 
#        150
#        19939
#        37487
#        56090
#        71992
#        86928
#        111809
#        130068
#        150348
#        171472
#        192296
#        213254
#        230413
#        254856
#        275708
#
# Disc length: 3942 seconds
#
# Revision: 7
# Processed by: cddbd v1.5.2PL0 Copyright (c) Steve Scherf et al.
# Submitted via: ExactAudioCopy v0.99pb5
#
DISCID=ed0f640f
DTITLE=Various Artist - Kneipen Hits - Ballads - CD 2
DYEAR=1998
DGENRE=Pop
TTITLE0=Culture Club - Do you really want to hurt me
TTITLE1=Little River Band - Home on Monday
TTITLE2=Leo Sayer - When I need you
TTITLE3=Mink DeVille - Spanish stroll
TTITLE4=Al Stewart - On the border
TTITLE5=Spandau Ballet - True
TTITLE6=Hollies - The air that I breathe
TTITLE7=Johnny Hates Jazz - Turn back the clock
TTITLE8=Peter Sarstedt - Where do you go to (my lovely)
TTITLE9=Ultravox - Vienna
TTITLE10=China Crisis - Wishful thinking
TTITLE11=Talk Talk - Dum dum girl
TTITLE12=Duran Duran - Save a prayer
TTITLE13=Living In A Box - Room in your heart
TTITLE14=Hot Chocolate - No doubt about it
EXTD=YEAR: 1998 ID3G: 116
EXTT0=
EXTT1=
EXTT2=
EXTT3=
EXTT4=
EXTT5=
EXTT6=
EXTT7=
EXTT8=
EXTT9=
EXTT10=
EXTT11=
EXTT12=
EXTT13=
EXTT14=
PLAYORDER=
